<svg width="26" height="33" viewBox="0 0 26 33" fill="none" xmlns="http://www.w3.org/2000/svg">
<path d="M25.9531 21.5601V20.624C25.9531 19.7935 25.0547 19.0986 24.3135 18.5791C24.208 18.5024 24.1045 18.4331 24.0098 18.3657L17.46 13.7979C15.2295 12.2412 15.2295 11.1631 15.2295 9.6392V3.8999C15.2295 2.80269 14.3389 0.356003 13.2422 0.356003C12.1475 0.356003 11.2568 2.80269 11.2568 3.8999V9.6392C11.2568 11.1631 11.2568 12.2412 9.02538 13.7979L2.47658 18.3657C2.38179 18.4331 2.27828 18.5024 2.17189 18.5791C1.43257 19.0986 0.533188 19.7935 0.533188 20.624V21.5601C0.533188 21.6606 0.528278 21.7603 0.533188 21.8535C0.542988 22.1279 0.627886 22.3135 1.11327 22.1484L11.2568 18.6689V25.6011C11.2539 27.1777 11.2031 27.4287 10.25 28.2056L9.81737 28.5532C9.81447 28.5552 9.81248 28.5552 9.81248 28.5576C9.81248 28.5576 9.80857 28.5601 9.80757 28.5601L8.28807 29.7725C8.25877 29.7964 8.22948 29.8169 8.20308 29.8389C8.01756 29.9868 7.88667 30.1235 7.88667 30.5142V31.7993C7.88667 32.3281 7.88667 32.4634 8.30858 32.2754L13.2393 30.0928C13.2422 30.0928 13.2422 30.0928 13.2422 30.0928C13.2442 30.0928 13.2442 30.0928 13.2442 30.0928L18.1777 32.2754C18.6006 32.4634 18.6006 32.3281 18.6006 31.7993V30.5142C18.6006 30.1235 18.4688 29.9868 18.2822 29.8389C18.2549 29.8169 18.2266 29.7964 18.1992 29.7725L16.6777 28.5601L16.6738 28.5576C16.6738 28.5552 16.6719 28.5552 16.669 28.5532L16.2354 28.2056C15.2832 27.4287 15.2295 27.1777 15.2295 25.6011V18.6689L25.374 22.1484C25.8604 22.3135 25.9434 22.1279 25.9531 21.8535C25.958 21.7603 25.9531 21.6606 25.9531 21.5601Z" fill="#044E54"/>
</svg>
